<svg width="300" height="40" viewBox="0 0 300 40" fill="none" xmlns="http://www.w3.org/2000/svg">
<path d="M21.803 39V11H26.083L38.323 31.44H36.083L48.123 11H52.403L52.443 39H47.523L47.483 18.72H48.523L38.283 35.8H35.963L25.563 18.72H26.763V39H21.803ZM64.6461 32.4L64.3661 26.24L79.0461 11H84.8861L72.6861 23.96L69.8061 27.12L64.6461 32.4ZM60.0061 39V11H65.2061V39H60.0061ZM79.5261 39L68.8061 26.24L72.2461 22.44L85.6061 39H79.5261ZM97.2408 39.4C95.0541 39.4 92.9608 39.0933 90.9608 38.48C88.9608 37.84 87.3741 37.0267 86.2008 36.04L88.0008 32C89.1208 32.88 90.5074 33.6133 92.1608 34.2C93.8141 34.7867 95.5074 35.08 97.2408 35.08C98.7074 35.08 99.8941 34.92 100.801 34.6C101.707 34.28 102.374 33.8533 102.801 33.32C103.227 32.76 103.441 32.1333 103.441 31.44C103.441 30.5867 103.134 29.9067 102.521 29.4C101.907 28.8667 101.107 28.4533 100.121 28.16C99.1608 27.84 98.0808 27.5467 96.8808 27.28C95.7074 27.0133 94.5208 26.7067 93.3208 26.36C92.1474 25.9867 91.0674 25.52 90.0808 24.96C89.1208 24.3733 88.3341 23.6 87.7208 22.64C87.1074 21.68 86.8008 20.4533 86.8008 18.96C86.8008 17.44 87.2008 16.0533 88.0008 14.8C88.8274 13.52 90.0674 12.5067 91.7208 11.76C93.4008 10.9867 95.5208 10.6 98.0808 10.6C99.7608 10.6 101.427 10.8133 103.081 11.24C104.734 11.6667 106.174 12.28 107.401 13.08L105.761 17.12C104.507 16.3733 103.214 15.8267 101.881 15.48C100.547 15.1067 99.2674 14.92 98.0408 14.92C96.6008 14.92 95.4274 15.0933 94.5208 15.44C93.6408 15.7867 92.9874 16.24 92.5608 16.8C92.1608 17.36 91.9608 18 91.9608 18.72C91.9608 19.5733 92.2541 20.2667 92.8408 20.8C93.4541 21.3067 94.2408 21.7067 95.2008 22C96.1874 22.2933 97.2808 22.5867 98.4808 22.88C99.6808 23.1467 100.867 23.4533 102.041 23.8C103.241 24.1467 104.321 24.6 105.281 25.16C106.267 25.72 107.054 26.48 107.641 27.44C108.254 28.4 108.561 29.6133 108.561 31.08C108.561 32.5733 108.147 33.96 107.321 35.24C106.521 36.4933 105.281 37.5067 103.601 38.28C101.921 39.0267 99.8008 39.4 97.2408 39.4Z" fill="white"/>
<path d="M161.628 36.1C160.588 36.1 159.601 35.9267 158.668 35.58C157.748 35.22 157.034 34.76 156.528 34.2L156.988 33.44C157.468 33.9333 158.121 34.3533 158.948 34.7C159.788 35.0333 160.674 35.2 161.608 35.2C162.541 35.2 163.301 35.08 163.888 34.84C164.488 34.5867 164.928 34.2533 165.208 33.84C165.501 33.4267 165.648 32.9667 165.648 32.46C165.648 31.86 165.488 31.38 165.168 31.02C164.848 30.66 164.428 30.3733 163.908 30.16C163.388 29.9467 162.821 29.7667 162.208 29.62C161.594 29.4733 160.974 29.32 160.348 29.16C159.721 28.9867 159.148 28.7667 158.628 28.5C158.108 28.2333 157.688 27.8733 157.368 27.42C157.061 26.9533 156.908 26.3533 156.908 25.62C156.908 24.9533 157.081 24.34 157.428 23.78C157.774 23.22 158.314 22.7667 159.048 22.42C159.781 22.0733 160.721 21.9 161.868 21.9C162.641 21.9 163.401 22.0133 164.148 22.24C164.908 22.4667 165.554 22.7733 166.088 23.16L165.708 23.98C165.121 23.58 164.488 23.2867 163.808 23.1C163.141 22.9 162.494 22.8 161.868 22.8C160.974 22.8 160.234 22.9267 159.648 23.18C159.061 23.4333 158.628 23.7733 158.348 24.2C158.068 24.6133 157.928 25.08 157.928 25.6C157.928 26.2 158.081 26.68 158.388 27.04C158.708 27.4 159.128 27.6867 159.648 27.9C160.168 28.1133 160.741 28.2933 161.368 28.44C161.994 28.5867 162.614 28.7467 163.228 28.92C163.841 29.08 164.408 29.2933 164.928 29.56C165.448 29.8267 165.868 30.1867 166.188 30.64C166.508 31.0933 166.668 31.68 166.668 32.4C166.668 33.0533 166.488 33.6667 166.128 34.24C165.768 34.8 165.214 35.2533 164.468 35.6C163.734 35.9333 162.788 36.1 161.628 36.1ZM169.815 36V25.56H170.815V36H169.815ZM170.315 23.02C170.089 23.02 169.895 22.94 169.735 22.78C169.575 22.62 169.495 22.4333 169.495 22.22C169.495 21.9933 169.575 21.8 169.735 21.64C169.895 21.48 170.089 21.4 170.315 21.4C170.555 21.4 170.749 21.48 170.895 21.64C171.055 21.7867 171.135 21.9733 171.135 22.2C171.135 22.4267 171.055 22.62 170.895 22.78C170.749 22.94 170.555 23.02 170.315 23.02ZM177.67 36.08C176.803 36.08 175.99 35.9533 175.23 35.7C174.483 35.4467 173.903 35.1267 173.49 34.74L173.95 33.94C174.35 34.2867 174.883 34.5867 175.55 34.84C176.217 35.08 176.937 35.2 177.71 35.2C178.803 35.2 179.59 35.02 180.07 34.66C180.55 34.3 180.79 33.8267 180.79 33.24C180.79 32.8133 180.663 32.48 180.41 32.24C180.17 31.9867 179.843 31.7933 179.43 31.66C179.017 31.5267 178.563 31.42 178.07 31.34C177.577 31.2467 177.083 31.1467 176.59 31.04C176.097 30.9333 175.643 30.78 175.23 30.58C174.817 30.38 174.483 30.1067 174.23 29.76C173.99 29.4 173.87 28.9267 173.87 28.34C173.87 27.8067 174.017 27.3267 174.31 26.9C174.603 26.4733 175.043 26.1333 175.63 25.88C176.217 25.6133 176.95 25.48 177.83 25.48C178.483 25.48 179.137 25.5733 179.79 25.76C180.457 25.9467 180.997 26.1933 181.41 26.5L180.95 27.3C180.51 26.9667 180.017 26.7267 179.47 26.58C178.923 26.4333 178.37 26.36 177.81 26.36C176.797 26.36 176.05 26.5467 175.57 26.92C175.103 27.2933 174.87 27.76 174.87 28.32C174.87 28.76 174.99 29.1133 175.23 29.38C175.483 29.6333 175.817 29.8333 176.23 29.98C176.643 30.1133 177.097 30.2267 177.59 30.32C178.083 30.4 178.577 30.4933 179.07 30.6C179.563 30.7067 180.017 30.86 180.43 31.06C180.843 31.2467 181.17 31.5133 181.41 31.86C181.663 32.1933 181.79 32.6467 181.79 33.22C181.79 33.7933 181.63 34.2933 181.31 34.72C181.003 35.1467 180.543 35.48 179.93 35.72C179.317 35.96 178.563 36.08 177.67 36.08ZM187.621 36.08C186.701 36.08 185.994 35.8267 185.501 35.32C185.021 34.8133 184.781 34.12 184.781 33.24V23.28H185.781V33.14C185.781 33.8067 185.948 34.32 186.281 34.68C186.614 35.04 187.094 35.22 187.721 35.22C188.374 35.22 188.914 35.0267 189.341 34.64L189.761 35.34C189.494 35.5933 189.168 35.78 188.781 35.9C188.408 36.02 188.021 36.08 187.621 36.08ZM182.861 26.42V25.56H189.101V26.42H182.861ZM196.419 36.08C195.365 36.08 194.432 35.8533 193.619 35.4C192.819 34.9467 192.185 34.32 191.719 33.52C191.265 32.72 191.039 31.8067 191.039 30.78C191.039 29.74 191.252 28.8267 191.679 28.04C192.119 27.24 192.719 26.6133 193.479 26.16C194.239 25.7067 195.092 25.48 196.039 25.48C196.985 25.48 197.832 25.7 198.579 26.14C199.339 26.58 199.932 27.2 200.359 28C200.799 28.7867 201.019 29.7 201.019 30.74C201.019 30.78 201.012 30.8267 200.999 30.88C200.999 30.92 200.999 30.9667 200.999 31.02H191.779V30.24H200.459L200.059 30.62C200.072 29.8067 199.899 29.08 199.539 28.44C199.192 27.7867 198.719 27.28 198.119 26.92C197.519 26.5467 196.825 26.36 196.039 26.36C195.265 26.36 194.572 26.5467 193.959 26.92C193.359 27.28 192.885 27.7867 192.539 28.44C192.192 29.08 192.019 29.8133 192.019 30.64V30.82C192.019 31.6733 192.205 32.4333 192.579 33.1C192.965 33.7533 193.492 34.2667 194.159 34.64C194.825 35 195.585 35.18 196.439 35.18C197.105 35.18 197.725 35.06 198.299 34.82C198.885 34.58 199.379 34.2133 199.779 33.72L200.359 34.38C199.905 34.94 199.332 35.3667 198.639 35.66C197.959 35.94 197.219 36.08 196.419 36.08ZM217.112 25.48C217.952 25.48 218.679 25.6467 219.292 25.98C219.919 26.3 220.406 26.7933 220.752 27.46C221.099 28.1133 221.272 28.9267 221.272 29.9V36H220.272V29.98C220.272 28.8067 219.986 27.9133 219.412 27.3C218.839 26.6867 218.039 26.38 217.012 26.38C216.226 26.38 215.546 26.5467 214.972 26.88C214.399 27.2133 213.959 27.68 213.652 28.28C213.346 28.88 213.192 29.6 213.192 30.44V36H212.192V29.98C212.192 28.8067 211.906 27.9133 211.332 27.3C210.759 26.6867 209.959 26.38 208.932 26.38C208.146 26.38 207.466 26.5467 206.892 26.88C206.319 27.2133 205.879 27.68 205.572 28.28C205.266 28.88 205.112 29.6 205.112 30.44V36H204.112V25.56H205.072V28.44L204.932 28.12C205.239 27.3067 205.752 26.6667 206.472 26.2C207.192 25.72 208.059 25.48 209.072 25.48C210.112 25.48 210.986 25.7467 211.692 26.28C212.412 26.8 212.866 27.58 213.052 28.62L212.712 28.48C212.992 27.5867 213.519 26.8667 214.292 26.32C215.066 25.76 216.006 25.48 217.112 25.48ZM231.981 36V33.62L231.941 33.26V29.34C231.941 28.3667 231.675 27.6267 231.141 27.12C230.621 26.6133 229.855 26.36 228.841 26.36C228.121 26.36 227.448 26.4867 226.821 26.74C226.208 26.98 225.681 27.2933 225.241 27.68L224.741 26.96C225.261 26.4933 225.888 26.1333 226.621 25.88C227.355 25.6133 228.121 25.48 228.921 25.48C230.215 25.48 231.208 25.8067 231.901 26.46C232.595 27.1133 232.941 28.0867 232.941 29.38V36H231.981ZM228.221 36.08C227.448 36.08 226.775 35.96 226.201 35.72C225.641 35.4667 225.208 35.1133 224.901 34.66C224.608 34.2067 224.461 33.6867 224.461 33.1C224.461 32.5667 224.581 32.0867 224.821 31.66C225.075 31.22 225.488 30.8667 226.061 30.6C226.635 30.32 227.401 30.18 228.361 30.18H232.201V30.96H228.381C227.301 30.96 226.541 31.16 226.101 31.56C225.675 31.96 225.461 32.46 225.461 33.06C225.461 33.7267 225.715 34.26 226.221 34.66C226.728 35.06 227.441 35.26 228.361 35.26C229.241 35.26 229.981 35.06 230.581 34.66C231.195 34.26 231.648 33.68 231.941 32.92L232.221 33.6C231.941 34.36 231.461 34.9667 230.781 35.42C230.115 35.86 229.261 36.08 228.221 36.08ZM239.701 36.08C238.835 36.08 238.021 35.9533 237.261 35.7C236.515 35.4467 235.935 35.1267 235.521 34.74L235.981 33.94C236.381 34.2867 236.915 34.5867 237.581 34.84C238.248 35.08 238.968 35.2 239.741 35.2C240.835 35.2 241.621 35.02 242.101 34.66C242.581 34.3 242.821 33.8267 242.821 33.24C242.821 32.8133 242.695 32.48 242.441 32.24C242.201 31.9867 241.875 31.7933 241.461 31.66C241.048 31.5267 240.595 31.42 240.101 31.34C239.608 31.2467 239.115 31.1467 238.621 31.04C238.128 30.9333 237.675 30.78 237.261 30.58C236.848 30.38 236.515 30.1067 236.261 29.76C236.021 29.4 235.901 28.9267 235.901 28.34C235.901 27.8067 236.048 27.3267 236.341 26.9C236.635 26.4733 237.075 26.1333 237.661 25.88C238.248 25.6133 238.981 25.48 239.861 25.48C240.515 25.48 241.168 25.5733 241.821 25.76C242.488 25.9467 243.028 26.1933 243.441 26.5L242.981 27.3C242.541 26.9667 242.048 26.7267 241.501 26.58C240.955 26.4333 240.401 26.36 239.841 26.36C238.828 26.36 238.081 26.5467 237.601 26.92C237.135 27.2933 236.901 27.76 236.901 28.32C236.901 28.76 237.021 29.1133 237.261 29.38C237.515 29.6333 237.848 29.8333 238.261 29.98C238.675 30.1133 239.128 30.2267 239.621 30.32C240.115 30.4 240.608 30.4933 241.101 30.6C241.595 30.7067 242.048 30.86 242.461 31.06C242.875 31.2467 243.201 31.5133 243.441 31.86C243.695 32.1933 243.821 32.6467 243.821 33.22C243.821 33.7933 243.661 34.2933 243.341 34.72C243.035 35.1467 242.575 35.48 241.961 35.72C241.348 35.96 240.595 36.08 239.701 36.08Z" fill="white"/>
</svg>
